<?xml version="1.0" encoding="utf-8"?>
<svg viewBox="327.2462 185.636 42.0005 30" width="42.0005" height="30" xmlns="http://www.w3.org/2000/svg">
  <path d="M 361.428 185.855 C 361.283 186.009 361.137 186.228 361.137 186.434 C 361.137 186.807 361.55 187.322 362.316 188.145 C 365.513 191.401 367.117 195.378 367.105 200.18 C 367.093 205.495 365.404 209.768 362.121 213.062 C 361.428 213.718 361.149 214.233 361.149 214.671 C 361.149 214.889 361.295 215.109 361.428 215.327 C 361.563 215.482 361.842 215.623 362.049 215.623 C 362.802 215.623 363.872 214.683 365.258 212.83 C 367.956 209.33 369.171 205.455 369.245 200.192 C 369.306 194.916 367.749 191.337 364.687 187.644 C 363.592 186.318 362.669 185.636 362.049 185.636 C 361.842 185.636 361.624 185.713 361.428 185.855 Z" fill="#ffffff"/>
  <path d="M 351.814 201.131 C 350.61 200.81 355.534 194.657 346.794 187.297 C 346.794 187.297 347.936 191.157 342.163 199.767 C 336.377 208.364 344.727 213.487 344.727 213.487 C 344.727 213.487 340.814 211.273 345.372 203.397 C 346.186 201.968 347.256 200.681 348.581 197.759 C 348.581 197.759 349.747 199.523 349.139 203.32 C 348.228 209.072 353.115 207.425 353.187 207.502 C 354.902 209.625 351.778 213.371 351.583 213.487 C 351.388 213.602 360.504 207.696 354.026 198.789 C 353.588 199.253 353.017 201.466 351.814 201.131 Z" fill="#ffffff"/>
  <path d="M 335.064 185.867 C 335.21 186.009 335.344 186.228 335.344 186.447 C 335.344 186.82 334.931 187.322 334.164 188.145 C 330.98 191.401 329.375 195.378 329.388 200.192 C 329.4 205.495 331.089 209.768 334.371 213.075 C 335.052 213.718 335.344 214.233 335.344 214.671 C 335.344 214.889 335.198 215.122 335.064 215.327 C 334.931 215.482 334.651 215.636 334.445 215.636 C 333.678 215.636 332.621 214.683 331.235 212.83 C 328.536 209.33 327.322 205.469 327.248 200.192 C 327.187 194.916 328.743 191.337 331.806 187.644 C 332.9 186.331 333.824 185.636 334.445 185.636 C 334.651 185.636 334.857 185.713 335.064 185.867 Z" fill="#ffffff"/>
</svg>