<svg id="wave" class='wave' preserveAspectRatio="none" style="transform:rotate(0deg); transition: 0.3s" viewBox="0 0 1440 480" version="1.1" xmlns="http://www.w3.org/2000/svg">
  <defs>
    <linearGradient id="sw-gradient-0" x1="0" x2="0" y1="1" y2="0">
      <stop stop-color="rgba(200.677, 98.575, 65.783, 1)" offset="0%"></stop>
      <stop stop-color="rgba(214.338, 163.808, 52.11, 1)" offset="100%"></stop>
    </linearGradient>
  </defs>
  <path style="transform:translate(0, 0px); opacity:1" fill="url(#sw-gradient-0)" d="M0,288L18.5,272C36.9,256,74,224,111,224C147.7,224,185,256,222,224C258.5,192,295,96,332,80C369.2,64,406,128,443,184C480,240,517,288,554,256C590.8,224,628,112,665,128C701.5,144,738,288,775,360C812.3,432,849,432,886,368C923.1,304,960,176,997,168C1033.8,160,1071,272,1108,312C1144.6,352,1182,320,1218,272C1255.4,224,1292,160,1329,160C1366.2,160,1403,224,1440,280C1476.9,336,1514,384,1551,344C1587.7,304,1625,176,1662,160C1698.5,144,1735,240,1772,280C1809.2,320,1846,304,1883,288C1920,272,1957,256,1994,208C2030.8,160,2068,80,2105,112C2141.5,144,2178,288,2215,336C2252.3,384,2289,336,2326,336C2363.1,336,2400,384,2437,368C2473.8,352,2511,272,2548,216C2584.6,160,2622,128,2640,112L2658.5,96L2658.5,480L2640,480C2621.5,480,2585,480,2548,480C2510.8,480,2474,480,2437,480C2400,480,2363,480,2326,480C2289.2,480,2252,480,2215,480C2178.5,480,2142,480,2105,480C2067.7,480,2031,480,1994,480C1956.9,480,1920,480,1883,480C1846.2,480,1809,480,1772,480C1735.4,480,1698,480,1662,480C1624.6,480,1588,480,1551,480C1513.8,480,1477,480,1440,480C1403.1,480,1366,480,1329,480C1292.3,480,1255,480,1218,480C1181.5,480,1145,480,1108,480C1070.8,480,1034,480,997,480C960,480,923,480,886,480C849.2,480,812,480,775,480C738.5,480,702,480,665,480C627.7,480,591,480,554,480C516.9,480,480,480,443,480C406.2,480,369,480,332,480C295.4,480,258,480,222,480C184.6,480,148,480,111,480C73.8,480,37,480,18,480L0,480Z"></path><defs><linearGradient id="sw-gradient-1" x1="0" x2="0" y1="1" y2="0"><stop stop-color="rgba(68.624, 45.732, 38.38, 1)" offset="0%"></stop><stop stop-color="rgba(34, 132, 102, 1)" offset="100%"></stop></linearGradient></defs><path style="transform:translate(0, 50px); opacity:0.9" fill="url(#sw-gradient-1)" d="M0,240L18.5,256C36.9,272,74,304,111,320C147.7,336,185,336,222,336C258.5,336,295,336,332,312C369.2,288,406,240,443,256C480,272,517,352,554,352C590.8,352,628,272,665,248C701.5,224,738,256,775,256C812.3,256,849,224,886,216C923.1,208,960,224,997,192C1033.8,160,1071,80,1108,64C1144.6,48,1182,96,1218,112C1255.4,128,1292,112,1329,104C1366.2,96,1403,96,1440,128C1476.9,160,1514,224,1551,208C1587.7,192,1625,96,1662,64C1698.5,32,1735,64,1772,104C1809.2,144,1846,192,1883,248C1920,304,1957,368,1994,352C2030.8,336,2068,240,2105,200C2141.5,160,2178,176,2215,224C2252.3,272,2289,352,2326,368C2363.1,384,2400,336,2437,280C2473.8,224,2511,160,2548,176C2584.6,192,2622,288,2640,336L2658.5,384L2658.5,480L2640,480C2621.5,480,2585,480,2548,480C2510.8,480,2474,480,2437,480C2400,480,2363,480,2326,480C2289.2,480,2252,480,2215,480C2178.5,480,2142,480,2105,480C2067.7,480,2031,480,1994,480C1956.9,480,1920,480,1883,480C1846.2,480,1809,480,1772,480C1735.4,480,1698,480,1662,480C1624.6,480,1588,480,1551,480C1513.8,480,1477,480,1440,480C1403.1,480,1366,480,1329,480C1292.3,480,1255,480,1218,480C1181.5,480,1145,480,1108,480C1070.8,480,1034,480,997,480C960,480,923,480,886,480C849.2,480,812,480,775,480C738.5,480,702,480,665,480C627.7,480,591,480,554,480C516.9,480,480,480,443,480C406.2,480,369,480,332,480C295.4,480,258,480,222,480C184.6,480,148,480,111,480C73.8,480,37,480,18,480L0,480Z"></path><defs><linearGradient id="sw-gradient-2" x1="0" x2="0" y1="1" y2="0"><stop stop-color="rgba(40.247, 136.927, 107.332, 1)" offset="0%"></stop><stop stop-color="rgba(102.989, 133.619, 164.249, 1)" offset="100%"></stop></linearGradient></defs><path style="transform:translate(0, 100px); opacity:0.8" fill="url(#sw-gradient-2)" d="M0,384L18.5,368C36.9,352,74,320,111,296C147.7,272,185,256,222,256C258.5,256,295,272,332,280C369.2,288,406,288,443,264C480,240,517,192,554,200C590.8,208,628,272,665,264C701.5,256,738,176,775,168C812.3,160,849,224,886,232C923.1,240,960,192,997,160C1033.8,128,1071,112,1108,128C1144.6,144,1182,192,1218,232C1255.4,272,1292,304,1329,312C1366.2,320,1403,304,1440,248C1476.9,192,1514,96,1551,48C1587.7,0,1625,0,1662,32C1698.5,64,1735,128,1772,128C1809.2,128,1846,64,1883,72C1920,80,1957,160,1994,200C2030.8,240,2068,240,2105,264C2141.5,288,2178,336,2215,328C2252.3,320,2289,256,2326,264C2363.1,272,2400,352,2437,328C2473.8,304,2511,176,2548,120C2584.6,64,2622,80,2640,88L2658.5,96L2658.5,480L2640,480C2621.5,480,2585,480,2548,480C2510.8,480,2474,480,2437,480C2400,480,2363,480,2326,480C2289.2,480,2252,480,2215,480C2178.5,480,2142,480,2105,480C2067.7,480,2031,480,1994,480C1956.9,480,1920,480,1883,480C1846.2,480,1809,480,1772,480C1735.4,480,1698,480,1662,480C1624.6,480,1588,480,1551,480C1513.8,480,1477,480,1440,480C1403.1,480,1366,480,1329,480C1292.3,480,1255,480,1218,480C1181.5,480,1145,480,1108,480C1070.8,480,1034,480,997,480C960,480,923,480,886,480C849.2,480,812,480,775,480C738.5,480,702,480,665,480C627.7,480,591,480,554,480C516.9,480,480,480,443,480C406.2,480,369,480,332,480C295.4,480,258,480,222,480C184.6,480,148,480,111,480C73.8,480,37,480,18,480L0,480Z"></path>
</svg>