<?xml version="1.0" encoding="UTF-8" standalone="no" ?>
<!DOCTYPE svg PUBLIC "-//W3C//DTD SVG 1.1//EN" "http://www.w3.org/Graphics/SVG/1.1/DTD/svg11.dtd">
<svg xmlns="http://www.w3.org/2000/svg" xmlns:xlink="http://www.w3.org/1999/xlink" version="1.1" width="1.5em" height="1.5em" viewBox="0 0 1080 1080" xml:space="preserve">
<desc>Created with Fabric.js 5.2.4</desc>
<defs>
</defs>
<g transform="matrix(1 0 0 1 540 540)" id="c782abe1-cddf-4168-8bb8-20a73939a860"  >
<rect style="stroke: none; stroke-width: 1; stroke-dasharray: none; stroke-linecap: butt; stroke-dashoffset: 0; stroke-linejoin: miter; stroke-miterlimit: 4; fill: rgb(255,255,255); fill-rule: nonzero; opacity: 1; visibility: hidden;" vector-effect="non-scaling-stroke"  x="-540" y="-540" rx="0" ry="0" width="1080" height="1080" />
</g>
<g transform="matrix(1 0 0 1 540 540)" id="5ddbea24-a0fb-4d2b-9a31-df1388187f1d"  >
</g>
<g transform="matrix(76.64 0 0 76.64 540 540)"  >
<path style="stroke: none; stroke-width: 1; stroke-dasharray: none; stroke-linecap: butt; stroke-dashoffset: 0; stroke-linejoin: miter; stroke-miterlimit: 4; fill: rgb(255,255,255); fill-rule: nonzero; opacity: 1;"  transform=" translate(-11.99, -11.99)" d="M 18.2929 15.2893 C 18.6834 14.8988 18.6834 14.2656 18.2929 13.8751 L 13.4007 8.98766 C 12.6195 8.20726 11.3537 8.20757 10.5729 8.98835 L 5.68257 13.8787 C 5.29205 14.2692 5.29205 14.9024 5.68257 15.2929 C 6.0731 15.6835 6.70626 15.6835 7.09679 15.2929 L 11.2824 11.1073 C 11.673 10.7168 12.3061 10.7168 12.6966 11.1073 L 16.8787 15.2893 C 17.2692 15.6798 17.9024 15.6798 18.2929 15.2893 Z" stroke-linecap="round" />
</g>
</svg>