<?xml version="1.0" encoding="UTF-8" standalone="no"?>
<svg
   version="1.1"
   viewBox="0 0 1080 1080"
   xml:space="preserve"
   id="svg1"
   sodipodi:docname="Mediamodifier-Design.svg"
   inkscape:version="1.3.2 (091e20ef0f, 2023-11-25, custom)"
   xmlns:inkscape="http://www.inkscape.org/namespaces/inkscape"
   xmlns:sodipodi="http://sodipodi.sourceforge.net/DTD/sodipodi-0.dtd"
   xmlns="http://www.w3.org/2000/svg"
   xmlns:svg="http://www.w3.org/2000/svg"><sodipodi:namedview
   id="namedview1"
   pagecolor="#505050"
   bordercolor="#ffffff"
   borderopacity="1"
   inkscape:showpageshadow="0"
   inkscape:pageopacity="0"
   inkscape:pagecheckerboard="1"
   inkscape:deskcolor="#d1d1d1"
   inkscape:zoom="0.21851852"
   inkscape:cx="533.13559"
   inkscape:cy="537.71186"
   inkscape:window-width="1920"
   inkscape:window-height="1012"
   inkscape:window-x="0"
   inkscape:window-y="32"
   inkscape:window-maximized="1"
   inkscape:current-layer="svg1" />
<desc
   id="desc1">Created with Fabric.js 5.2.4</desc>
<defs
   id="defs1">
</defs>

<g
   transform="matrix(1 0 0 1 540 540)"
   id="24944151-d284-49aa-982d-363946d3d0e5">
</g>
<g
   transform="matrix(75.97,0,0,75.97,540,624)"
   id="g1">
<path
   style="opacity:1;fill:#ffffff;fill-rule:nonzero;stroke:none;stroke-width:1;stroke-linecap:butt;stroke-linejoin:miter;stroke-miterlimit:4;stroke-dasharray:none;stroke-dashoffset:0"
   transform="translate(-12.01,-13.01)"
   d="m 5.70711,9.71069 c -0.39053,0.39051 -0.39053,1.02371 0,1.41421 l 4.89219,4.8874 c 0.7812,0.7804 2.047,0.7801 2.8278,-6e-4 l 4.8903,-4.8904 c 0.3906,-0.3905 0.3906,-1.0237 0,-1.41422 -0.3905,-0.39053 -1.0237,-0.39053 -1.4142,0 l -4.1856,4.18562 c -0.3905,0.3906 -1.0237,0.3905 -1.4142,0 L 7.12132,9.71069 c -0.39052,-0.39053 -1.02369,-0.39053 -1.41421,0 z"
   stroke-linecap="round"
   id="path1" />
</g>
</svg>
