<?xml version="1.0" encoding="utf-8"?>
<svg viewBox="235.695 145.8532 45.0001 32" width="45.0001" height="32" xmlns="http://www.w3.org/2000/svg">
  <g id="g-7" transform="matrix(0.1939660161733627, 0, 0, 0.17391301691532132, 233.36742333672686, 139.59231983400332)" style="">
    <path d="M35.89062,128C52.001,136.22559,52,155.64258,52,172c0,24.7998,1.35254,40,28,40a4,4,0,0,1,0,8c-36,0-36-26.61426-36-48,0-24.7998-1.35254-40-28-40a4,4,0,0,1,0-8c26.64746,0,28-15.2002,28-40,0-21.38574,0-48,36-48a4,4,0,0,1,0,8C53.35254,44,52,59.2002,52,84,52,100.35742,52.001,119.77441,35.89062,128ZM240,124c-26.64746,0-28-15.2002-28-40,0-21.38574,0-48-36-48a4,4,0,0,0,0,8c26.64746,0,28,15.2002,28,40,0,16.35742-.001,35.77441,16.10938,44C203.999,136.22559,204,155.64258,204,172c0,24.7998-1.35254,40-28,40a4,4,0,0,0,0,8c36,0,36-26.61426,36-48,0-24.7998,1.35254-40,28-40a4,4,0,0,0,0-8Z" style="fill: rgb(94, 194, 177);"/>
  </g>
  <g id="g-8" transform="matrix(0.12065500766038893, 0, 0, 0.09694600105285643, 243.76555597083413, 149.62730853638956)" style="">
    <path d="M 28.091 128 C 44.201 136.226 44.2 155.643 44.2 172 C 44.2 196.8 45.553 212 72.2 212 C 75.28 212 77.204 215.333 75.665 218 C 74.95 219.238 73.63 220 72.2 220 C 36.2 220 36.2 193.386 36.2 172 C 36.2 147.2 34.848 132 8.2 132 C 5.121 132 3.197 128.667 4.736 126 C 5.451 124.762 6.771 124 8.2 124 C 34.848 124 36.2 108.8 36.2 84 C 36.2 62.614 36.2 36 72.2 36 C 75.28 36 77.204 39.333 75.665 42 C 74.95 43.238 73.63 44 72.2 44 C 45.553 44 44.2 59.2 44.2 84 C 44.2 100.357 44.201 119.774 28.091 128 Z M 232.2 124 C 205.553 124 204.2 108.8 204.2 84 C 204.2 62.614 204.2 36 168.2 36 C 165.121 36 163.197 39.333 164.736 42 C 165.451 43.238 166.771 44 168.2 44 C 194.848 44 196.2 59.2 196.2 84 C 196.2 100.357 196.199 119.774 212.31 128 C 196.199 136.226 196.2 155.643 196.2 172 C 196.2 196.8 194.848 212 168.2 212 C 165.121 212 163.197 215.333 164.736 218 C 165.451 219.238 166.771 220 168.2 220 C 204.2 220 204.2 193.386 204.2 172 C 204.2 147.2 205.553 132 232.2 132 C 235.28 132 237.204 128.667 235.665 126 C 234.95 124.762 233.63 124 232.2 124 Z" style="fill: rgb(94, 194, 177);"/>
  </g>
  <text style="fill: rgb(94, 194, 177); font-family: Arial, sans-serif; font-size: 28px; white-space: pre;" transform="matrix(0.7833560109138488, 0, 0, 0.5597090125083922, -58.02471715285523, 7.234394289088073)"><tspan x="396.745" y="282.055">...</tspan><tspan x="391.745" dy="1em">​</tspan><tspan x="391.745" dy="1em">​</tspan></text>
</svg>