<svg id="waves" class='welcome-section__waves' preserveAspectRatio="none" style="transform:rotate(0deg); transition: 0.3s" viewBox="0 0 1440 790" version="1.1" xmlns="http://www.w3.org/2000/svg">
  <defs>
    <linearGradient id="sw-gradient-0" x1="0" x2="0" y1="1" y2="0">
      <stop stop-color="rgba(130.936, 161.253, 191.57, 1)" offset="0%"></stop>
      <stop stop-color="rgba(71.909, 212.061, 169.158, 1)" offset="100%"></stop>
    </linearGradient>
  </defs>
  <path style="transform:translate(0, 0px); opacity:1" fill="url(#sw-gradient-0)" d="M0,98L14.1,130.7C28.2,163,56,229,85,236.8C112.9,245,141,196,169,155.2C197.6,114,226,82,254,57.2C282.4,33,311,16,339,16.3C367.1,16,395,33,424,57.2C451.8,82,480,114,508,130.7C536.5,147,565,147,593,179.7C621.2,212,649,278,678,326.7C705.9,376,734,408,762,416.5C790.6,425,819,408,847,359.3C875.3,310,904,229,932,220.5C960,212,988,278,1016,302.2C1044.7,327,1073,310,1101,261.3C1129.4,212,1158,131,1186,81.7C1214.1,33,1242,16,1271,73.5C1298.8,131,1327,261,1355,261.3C1383.5,261,1412,131,1440,65.3C1468.2,0,1496,0,1525,8.2C1552.9,16,1581,33,1609,106.2C1637.6,180,1666,310,1694,375.7C1722.4,441,1751,441,1779,392C1807.1,343,1835,245,1864,212.3C1891.8,180,1920,212,1948,253.2C1976.5,294,2005,343,2019,367.5L2032.9,392L2032.9,490L2018.8,490C2004.7,490,1976,490,1948,490C1920,490,1892,490,1864,490C1835.3,490,1807,490,1779,490C1750.6,490,1722,490,1694,490C1665.9,490,1638,490,1609,490C1581.2,490,1553,490,1525,490C1496.5,490,1468,490,1440,490C1411.8,490,1384,490,1355,490C1327.1,490,1299,490,1271,490C1242.4,490,1214,490,1186,490C1157.6,490,1129,490,1101,490C1072.9,490,1045,490,1016,490C988.2,490,960,490,932,490C903.5,490,875,490,847,490C818.8,490,791,490,762,490C734.1,490,706,490,678,490C649.4,490,621,490,593,490C564.7,490,536,490,508,490C480,490,452,490,424,490C395.3,490,367,490,339,490C310.6,490,282,490,254,490C225.9,490,198,490,169,490C141.2,490,113,490,85,490C56.5,490,28,490,14,490L0,490Z"></path><defs><linearGradient id="sw-gradient-1" x1="0" x2="0" y1="1" y2="0"><stop stop-color="rgba(81, 111, 141, 1)" offset="0%"></stop><stop stop-color="rgba(34, 132, 102, 1)" offset="100%"></stop></linearGradient></defs><path style="transform:translate(0, 50px); opacity:0.9" fill="url(#sw-gradient-1)" d="M0,49L14.1,49C28.2,49,56,49,85,89.8C112.9,131,141,212,169,269.5C197.6,327,226,359,254,367.5C282.4,376,311,359,339,326.7C367.1,294,395,245,424,187.8C451.8,131,480,65,508,98C536.5,131,565,261,593,318.5C621.2,376,649,359,678,359.3C705.9,359,734,376,762,326.7C790.6,278,819,163,847,130.7C875.3,98,904,147,932,179.7C960,212,988,229,1016,220.5C1044.7,212,1073,180,1101,179.7C1129.4,180,1158,212,1186,261.3C1214.1,310,1242,376,1271,343C1298.8,310,1327,180,1355,114.3C1383.5,49,1412,49,1440,73.5C1468.2,98,1496,147,1525,179.7C1552.9,212,1581,229,1609,196C1637.6,163,1666,82,1694,98C1722.4,114,1751,229,1779,285.8C1807.1,343,1835,343,1864,343C1891.8,343,1920,343,1948,334.8C1976.5,327,2005,310,2019,302.2L2032.9,294L2032.9,490L2018.8,490C2004.7,490,1976,490,1948,490C1920,490,1892,490,1864,490C1835.3,490,1807,490,1779,490C1750.6,490,1722,490,1694,490C1665.9,490,1638,490,1609,490C1581.2,490,1553,490,1525,490C1496.5,490,1468,490,1440,490C1411.8,490,1384,490,1355,490C1327.1,490,1299,490,1271,490C1242.4,490,1214,490,1186,490C1157.6,490,1129,490,1101,490C1072.9,490,1045,490,1016,490C988.2,490,960,490,932,490C903.5,490,875,490,847,490C818.8,490,791,490,762,490C734.1,490,706,490,678,490C649.4,490,621,490,593,490C564.7,490,536,490,508,490C480,490,452,490,424,490C395.3,490,367,490,339,490C310.6,490,282,490,254,490C225.9,490,198,490,169,490C141.2,490,113,490,85,490C56.5,490,28,490,14,490L0,490Z"></path>
</svg>